<?xml version="1.0" ?><svg viewBox="0 0 40 40" xmlns="http://www.w3.org/2000/svg"><title/><g id="Android"><path d="M23.5,8.39l1.14-2.05a.23.23,0,0,0-.2-.34.22.22,0,0,0-.2.12L23.09,8.19a7.74,7.74,0,0,0-6.21,0L15.74,6.12A.24.24,0,0,0,15.53,6a.19.19,0,0,0-.1,0,.21.21,0,0,0-.09.31l1.13,2.05a6.57,6.57,0,0,0-3.66,5.76H27.16A6.55,6.55,0,0,0,23.5,8.39Zm-6.82,3.13a.6.6,0,1,1,0-1.19.6.6,0,1,1,0,1.19Zm6.62,0a.6.6,0,1,1,0-1.19.6.6,0,1,1,0,1.19Zm3.86,3.2V25.11a1.73,1.73,0,0,1-1.74,1.74H24.27v3.54a1.61,1.61,0,1,1-3.21,0V26.85H18.92v3.54a1.61,1.61,0,0,1-3.22,0V26.85H14.55a1.74,1.74,0,0,1-1.74-1.74V14.72Zm-16.55-.28A1.6,1.6,0,0,0,9,16.05v6.7a1.61,1.61,0,0,0,3.22,0v-6.7a1.6,1.6,0,0,0-1.61-1.61Zm18.76,0a1.6,1.6,0,0,0-1.61,1.61v6.7a1.61,1.61,0,1,0,3.21,0v-6.7a1.59,1.59,0,0,0-1.6-1.61Z"/></g></svg>