<svg width="18" height="16" viewBox="0 0 18 16" fill="none" xmlns="http://www.w3.org/2000/svg">
<path d="M4.5 0C4.372 0 4.24398 0.0489844 4.14648 0.146484C3.95148 0.341484 3.95148 0.658516 4.14648 0.853516L5.45703 2.16406C3.96911 3.25592 3 5.01275 3 7H15C15 5.01275 14.0309 3.25592 12.543 2.16406L13.8535 0.853516C14.0485 0.657516 14.0485 0.342484 13.8535 0.146484C13.6585 -0.0485156 13.3415 -0.0485156 13.1465 0.146484L11.6641 1.62891C10.8606 1.22956 9.95819 1 9 1C8.04181 1 7.13938 1.22956 6.33594 1.62891L4.85352 0.146484C4.75602 0.0489844 4.628 0 4.5 0ZM6 4H7V5H6V4ZM11 4H12V5H11V4ZM1 8C0.448 8 0 8.448 0 9V15C0 15.552 0.448 16 1 16C1.552 16 2 15.552 2 15V9C2 8.448 1.552 8 1 8ZM3 8V16C3 16.552 3.448 17 4 17H5V20.5C5 21.328 5.672 22 6.5 22C7.328 22 8 21.328 8 20.5V17H10V20.5C10 21.328 10.672 22 11.5 22C12.328 22 13 21.328 13 20.5V17H14C14.552 17 15 16.552 15 16V8H3ZM17 8C16.448 8 16 8.448 16 9V15C16 15.552 16.448 16 17 16C17.552 16 18 15.552 18 15V9C18 8.448 17.552 8 17 8Z" fill="#666666"/>
</svg>
