<svg width="20" height="12" viewBox="0 0 20 12" fill="none" xmlns="http://www.w3.org/2000/svg">
<path d="M15.9026 0.500459C15.5516 0.496545 15.4087 0.60224 15.2904 0.923236C14.3599 3.47164 12.8376 5.63641 10.6216 7.31577C9.88289 7.87947 10.1033 7.91861 9.29113 7.29619C7.08324 5.60509 5.56098 3.44032 4.64273 0.888006C4.5407 0.602241 4.41827 0.496545 4.10402 0.500459C2.86336 0.516118 1.62678 0.520032 0.38612 0.500459C-0.0179117 0.49263 -0.0709663 0.582667 0.0718731 0.938895C1.85532 5.46025 5.0182 8.84246 9.3197 11.3008C9.77679 11.5631 10.1441 11.567 10.6053 11.3086C14.1109 9.35135 16.8494 6.67377 18.7879 3.26025C19.2776 2.39904 19.6939 1.50651 20 0.50829C18.6002 0.50829 17.2493 0.520032 15.8985 0.500459H15.9026Z" fill="#666666"/>
</svg>
