<svg width="13" height="13" viewBox="0 0 13 13" fill="#ffffff" xmlns="http://www.w3.org/2000/svg">
<path d="M6.5 12.5C4.83333 12.5 3.41667 11.9167 2.25 10.75C1.08333 9.58333 0.5 8.16667 0.5 6.5C0.5 4.83333 1.08333 3.41667 2.25 2.25C3.41667 1.08333 4.83333 0.5 6.5 0.5C6.65556 0.5 6.80844 0.505556 6.95867 0.516667C7.10844 0.527778 7.25556 0.544444 7.4 0.566667C6.94444 0.888889 6.58067 1.30822 6.30867 1.82467C6.03622 2.34156 5.9 2.9 5.9 3.5C5.9 4.5 6.25 5.35 6.95 6.05C7.65 6.75 8.5 7.1 9.5 7.1C10.1111 7.1 10.6722 6.96378 11.1833 6.69133C11.6944 6.41933 12.1111 6.05556 12.4333 5.6C12.4556 5.74444 12.4722 5.89156 12.4833 6.04133C12.4944 6.19156 12.5 6.34444 12.5 6.5C12.5 8.16667 11.9167 9.58333 10.75 10.75C9.58333 11.9167 8.16667 12.5 6.5 12.5ZM6.5 11.1667C7.47778 11.1667 8.35556 10.8973 9.13333 10.3587C9.91111 9.81956 10.4778 9.11667 10.8333 8.25C10.6111 8.30556 10.3889 8.35 10.1667 8.38333C9.94444 8.41667 9.72222 8.43333 9.5 8.43333C8.13333 8.43333 6.96933 7.95289 6.008 6.992C5.04711 6.03067 4.56667 4.86667 4.56667 3.5C4.56667 3.27778 4.58333 3.05556 4.61667 2.83333C4.65 2.61111 4.69444 2.38889 4.75 2.16667C3.88333 2.52222 3.18067 3.08889 2.642 3.86667C2.10289 4.64444 1.83333 5.52222 1.83333 6.5C1.83333 7.78889 2.28889 8.88889 3.2 9.8C4.11111 10.7111 5.21111 11.1667 6.5 11.1667Z" fill="#ffffff"/>
<path d="M6.5 12.5C4.83333 12.5 3.41667 11.9167 2.25 10.75C1.08333 9.58333 0.5 8.16667 0.5 6.5C0.5 4.83333 1.08333 3.41667 2.25 2.25C3.41667 1.08333 4.83333 0.5 6.5 0.5C6.65556 0.5 6.80844 0.505556 6.95867 0.516667C7.10844 0.527778 7.25556 0.544444 7.4 0.566667C6.94444 0.888889 6.58067 1.30822 6.30867 1.82467C6.03622 2.34156 5.9 2.9 5.9 3.5C5.9 4.5 6.25 5.35 6.95 6.05C7.65 6.75 8.5 7.1 9.5 7.1C10.1111 7.1 10.6722 6.96378 11.1833 6.69133C11.6944 6.41933 12.1111 6.05556 12.4333 5.6C12.4556 5.74444 12.4722 5.89156 12.4833 6.04133C12.4944 6.19156 12.5 6.34444 12.5 6.5C12.5 8.16667 11.9167 9.58333 10.75 10.75C9.58333 11.9167 8.16667 12.5 6.5 12.5ZM6.5 11.1667C7.47778 11.1667 8.35556 10.8973 9.13333 10.3587C9.91111 9.81956 10.4778 9.11667 10.8333 8.25C10.6111 8.30556 10.3889 8.35 10.1667 8.38333C9.94444 8.41667 9.72222 8.43333 9.5 8.43333C8.13333 8.43333 6.96933 7.95289 6.008 6.992C5.04711 6.03067 4.56667 4.86667 4.56667 3.5C4.56667 3.27778 4.58333 3.05556 4.61667 2.83333C4.65 2.61111 4.69444 2.38889 4.75 2.16667C3.88333 2.52222 3.18067 3.08889 2.642 3.86667C2.10289 4.64444 1.83333 5.52222 1.83333 6.5C1.83333 7.78889 2.28889 8.88889 3.2 9.8C4.11111 10.7111 5.21111 11.1667 6.5 11.1667Z" fill="#ffffff" fill-opacity="0.25"/>
</svg>
