<svg width="15" height="16" viewBox="0 0 15 16" fill="none" xmlns="http://www.w3.org/2000/svg">
<path d="M7.50008 9.99996C8.05564 9.99996 8.52786 9.80552 8.91675 9.41663C9.30564 9.02774 9.50008 8.55552 9.50008 7.99996C9.50008 7.4444 9.30564 6.97218 8.91675 6.58329C8.52786 6.1944 8.05564 5.99996 7.50008 5.99996C6.94453 5.99996 6.4723 6.1944 6.08342 6.58329C5.69453 6.97218 5.50008 7.4444 5.50008 7.99996C5.50008 8.55552 5.69453 9.02774 6.08342 9.41663C6.4723 9.80552 6.94453 9.99996 7.50008 9.99996ZM7.50008 11.3333C6.57786 11.3333 5.79186 11.0082 5.14208 10.358C4.49186 9.70818 4.16675 8.92218 4.16675 7.99996C4.16675 7.07774 4.49186 6.29151 5.14208 5.64129C5.79186 4.99152 6.57786 4.66663 7.50008 4.66663C8.4223 4.66663 9.20853 4.99152 9.85875 5.64129C10.5085 6.29151 10.8334 7.07774 10.8334 7.99996C10.8334 8.92218 10.5085 9.70818 9.85875 10.358C9.20853 11.0082 8.4223 11.3333 7.50008 11.3333ZM0.833415 8.66663C0.644526 8.66663 0.486304 8.60263 0.358748 8.47463C0.230748 8.34707 0.166748 8.18885 0.166748 7.99996C0.166748 7.81107 0.230748 7.65263 0.358748 7.52463C0.486304 7.39707 0.644526 7.33329 0.833415 7.33329H2.16675C2.35564 7.33329 2.51408 7.39707 2.64208 7.52463C2.76964 7.65263 2.83341 7.81107 2.83341 7.99996C2.83341 8.18885 2.76964 8.34707 2.64208 8.47463C2.51408 8.60263 2.35564 8.66663 2.16675 8.66663H0.833415ZM12.8334 8.66663C12.6445 8.66663 12.4863 8.60263 12.3587 8.47463C12.2307 8.34707 12.1667 8.18885 12.1667 7.99996C12.1667 7.81107 12.2307 7.65263 12.3587 7.52463C12.4863 7.39707 12.6445 7.33329 12.8334 7.33329H14.1667C14.3556 7.33329 14.5139 7.39707 14.6414 7.52463C14.7694 7.65263 14.8334 7.81107 14.8334 7.99996C14.8334 8.18885 14.7694 8.34707 14.6414 8.47463C14.5139 8.60263 14.3556 8.66663 14.1667 8.66663H12.8334ZM7.50008 3.33329C7.31119 3.33329 7.15297 3.26929 7.02541 3.14129C6.89742 3.01374 6.83342 2.85552 6.83342 2.66663V1.33329C6.83342 1.1444 6.89742 0.985959 7.02541 0.857959C7.15297 0.730404 7.31119 0.666626 7.50008 0.666626C7.68897 0.666626 7.84741 0.730404 7.97542 0.857959C8.10297 0.985959 8.16675 1.1444 8.16675 1.33329V2.66663C8.16675 2.85552 8.10297 3.01374 7.97542 3.14129C7.84741 3.26929 7.68897 3.33329 7.50008 3.33329ZM7.50008 15.3333C7.31119 15.3333 7.15297 15.2693 7.02541 15.1413C6.89742 15.0137 6.83342 14.8555 6.83342 14.6666V13.3333C6.83342 13.1444 6.89742 12.9862 7.02541 12.8586C7.15297 12.7306 7.31119 12.6666 7.50008 12.6666C7.68897 12.6666 7.84741 12.7306 7.97542 12.8586C8.10297 12.9862 8.16675 13.1444 8.16675 13.3333V14.6666C8.16675 14.8555 8.10297 15.0137 7.97542 15.1413C7.84741 15.2693 7.68897 15.3333 7.50008 15.3333ZM3.26675 4.69996L2.55008 3.99996C2.41675 3.87774 2.35275 3.72218 2.35808 3.53329C2.36386 3.3444 2.42786 3.18329 2.55008 3.04996C2.68341 2.91663 2.84453 2.84996 3.03341 2.84996C3.2223 2.84996 3.37786 2.91663 3.50008 3.04996L4.20008 3.76663C4.3223 3.89996 4.38341 4.05551 4.38341 4.23329C4.38341 4.41107 4.3223 4.56663 4.20008 4.69996C4.07786 4.83329 3.92519 4.89707 3.74208 4.89129C3.55853 4.88596 3.40008 4.82218 3.26675 4.69996ZM11.5001 12.95L10.8001 12.2333C10.6779 12.1 10.6167 11.9417 10.6167 11.7586C10.6167 11.5751 10.6779 11.4222 10.8001 11.3C10.9223 11.1666 11.0752 11.1028 11.2587 11.1086C11.4419 11.114 11.6001 11.1777 11.7334 11.3L12.4501 12C12.5834 12.1222 12.6474 12.2777 12.6421 12.4666C12.6363 12.6555 12.5723 12.8166 12.4501 12.95C12.3167 13.0833 12.1556 13.15 11.9667 13.15C11.7779 13.15 11.6223 13.0833 11.5001 12.95ZM10.8001 4.69996C10.6667 4.57774 10.603 4.42485 10.6087 4.24129C10.6141 4.05818 10.6779 3.89996 10.8001 3.76663L11.5001 3.04996C11.6223 2.91663 11.7779 2.85263 11.9667 2.85796C12.1556 2.86374 12.3167 2.92774 12.4501 3.04996C12.5834 3.18329 12.6501 3.3444 12.6501 3.53329C12.6501 3.72218 12.5834 3.87774 12.4501 3.99996L11.7334 4.69996C11.6001 4.82218 11.4445 4.88329 11.2667 4.88329C11.089 4.88329 10.9334 4.82218 10.8001 4.69996ZM2.55008 12.95C2.41675 12.8166 2.35008 12.6555 2.35008 12.4666C2.35008 12.2777 2.41675 12.1222 2.55008 12L3.26675 11.3C3.40008 11.1777 3.55853 11.1166 3.74208 11.1166C3.92519 11.1166 4.07786 11.1777 4.20008 11.3C4.33342 11.4222 4.39741 11.5751 4.39208 11.7586C4.3863 11.9417 4.3223 12.1 4.20008 12.2333L3.50008 12.95C3.37786 13.0833 3.2223 13.1471 3.03341 13.1413C2.84453 13.136 2.68341 13.0722 2.55008 12.95Z" fill="#000000"/>
<path d="M7.50008 9.99996C8.05564 9.99996 8.52786 9.80552 8.91675 9.41663C9.30564 9.02774 9.50008 8.55552 9.50008 7.99996C9.50008 7.4444 9.30564 6.97218 8.91675 6.58329C8.52786 6.1944 8.05564 5.99996 7.50008 5.99996C6.94453 5.99996 6.4723 6.1944 6.08342 6.58329C5.69453 6.97218 5.50008 7.4444 5.50008 7.99996C5.50008 8.55552 5.69453 9.02774 6.08342 9.41663C6.4723 9.80552 6.94453 9.99996 7.50008 9.99996ZM7.50008 11.3333C6.57786 11.3333 5.79186 11.0082 5.14208 10.358C4.49186 9.70818 4.16675 8.92218 4.16675 7.99996C4.16675 7.07774 4.49186 6.29151 5.14208 5.64129C5.79186 4.99152 6.57786 4.66663 7.50008 4.66663C8.4223 4.66663 9.20853 4.99152 9.85875 5.64129C10.5085 6.29151 10.8334 7.07774 10.8334 7.99996C10.8334 8.92218 10.5085 9.70818 9.85875 10.358C9.20853 11.0082 8.4223 11.3333 7.50008 11.3333ZM0.833415 8.66663C0.644526 8.66663 0.486304 8.60263 0.358748 8.47463C0.230748 8.34707 0.166748 8.18885 0.166748 7.99996C0.166748 7.81107 0.230748 7.65263 0.358748 7.52463C0.486304 7.39707 0.644526 7.33329 0.833415 7.33329H2.16675C2.35564 7.33329 2.51408 7.39707 2.64208 7.52463C2.76964 7.65263 2.83341 7.81107 2.83341 7.99996C2.83341 8.18885 2.76964 8.34707 2.64208 8.47463C2.51408 8.60263 2.35564 8.66663 2.16675 8.66663H0.833415ZM12.8334 8.66663C12.6445 8.66663 12.4863 8.60263 12.3587 8.47463C12.2307 8.34707 12.1667 8.18885 12.1667 7.99996C12.1667 7.81107 12.2307 7.65263 12.3587 7.52463C12.4863 7.39707 12.6445 7.33329 12.8334 7.33329H14.1667C14.3556 7.33329 14.5139 7.39707 14.6414 7.52463C14.7694 7.65263 14.8334 7.81107 14.8334 7.99996C14.8334 8.18885 14.7694 8.34707 14.6414 8.47463C14.5139 8.60263 14.3556 8.66663 14.1667 8.66663H12.8334ZM7.50008 3.33329C7.31119 3.33329 7.15297 3.26929 7.02541 3.14129C6.89742 3.01374 6.83342 2.85552 6.83342 2.66663V1.33329C6.83342 1.1444 6.89742 0.985959 7.02541 0.857959C7.15297 0.730404 7.31119 0.666626 7.50008 0.666626C7.68897 0.666626 7.84741 0.730404 7.97542 0.857959C8.10297 0.985959 8.16675 1.1444 8.16675 1.33329V2.66663C8.16675 2.85552 8.10297 3.01374 7.97542 3.14129C7.84741 3.26929 7.68897 3.33329 7.50008 3.33329ZM7.50008 15.3333C7.31119 15.3333 7.15297 15.2693 7.02541 15.1413C6.89742 15.0137 6.83342 14.8555 6.83342 14.6666V13.3333C6.83342 13.1444 6.89742 12.9862 7.02541 12.8586C7.15297 12.7306 7.31119 12.6666 7.50008 12.6666C7.68897 12.6666 7.84741 12.7306 7.97542 12.8586C8.10297 12.9862 8.16675 13.1444 8.16675 13.3333V14.6666C8.16675 14.8555 8.10297 15.0137 7.97542 15.1413C7.84741 15.2693 7.68897 15.3333 7.50008 15.3333ZM3.26675 4.69996L2.55008 3.99996C2.41675 3.87774 2.35275 3.72218 2.35808 3.53329C2.36386 3.3444 2.42786 3.18329 2.55008 3.04996C2.68341 2.91663 2.84453 2.84996 3.03341 2.84996C3.2223 2.84996 3.37786 2.91663 3.50008 3.04996L4.20008 3.76663C4.3223 3.89996 4.38341 4.05551 4.38341 4.23329C4.38341 4.41107 4.3223 4.56663 4.20008 4.69996C4.07786 4.83329 3.92519 4.89707 3.74208 4.89129C3.55853 4.88596 3.40008 4.82218 3.26675 4.69996ZM11.5001 12.95L10.8001 12.2333C10.6779 12.1 10.6167 11.9417 10.6167 11.7586C10.6167 11.5751 10.6779 11.4222 10.8001 11.3C10.9223 11.1666 11.0752 11.1028 11.2587 11.1086C11.4419 11.114 11.6001 11.1777 11.7334 11.3L12.4501 12C12.5834 12.1222 12.6474 12.2777 12.6421 12.4666C12.6363 12.6555 12.5723 12.8166 12.4501 12.95C12.3167 13.0833 12.1556 13.15 11.9667 13.15C11.7779 13.15 11.6223 13.0833 11.5001 12.95ZM10.8001 4.69996C10.6667 4.57774 10.603 4.42485 10.6087 4.24129C10.6141 4.05818 10.6779 3.89996 10.8001 3.76663L11.5001 3.04996C11.6223 2.91663 11.7779 2.85263 11.9667 2.85796C12.1556 2.86374 12.3167 2.92774 12.4501 3.04996C12.5834 3.18329 12.6501 3.3444 12.6501 3.53329C12.6501 3.72218 12.5834 3.87774 12.4501 3.99996L11.7334 4.69996C11.6001 4.82218 11.4445 4.88329 11.2667 4.88329C11.089 4.88329 10.9334 4.82218 10.8001 4.69996ZM2.55008 12.95C2.41675 12.8166 2.35008 12.6555 2.35008 12.4666C2.35008 12.2777 2.41675 12.1222 2.55008 12L3.26675 11.3C3.40008 11.1777 3.55853 11.1166 3.74208 11.1166C3.92519 11.1166 4.07786 11.1777 4.20008 11.3C4.33342 11.4222 4.39741 11.5751 4.39208 11.7586C4.3863 11.9417 4.3223 12.1 4.20008 12.2333L3.50008 12.95C3.37786 13.0833 3.2223 13.1471 3.03341 13.1413C2.84453 13.136 2.68341 13.0722 2.55008 12.95Z" fill="#000000" fill-opacity="0.25"/>
</svg>
